<svg width="30" height="30" viewBox="0 0 30 30" fill="none" xmlns="http://www.w3.org/2000/svg">
<g id="&#208;&#159;&#208;&#190;&#208;&#187;&#209;&#140;&#208;&#183;&#208;&#190;&#208;&#178;&#208;&#176;&#209;&#130;&#208;&#181;&#208;&#187;&#209;&#140;">
<g id="Icon">
<path fill-rule="evenodd" clip-rule="evenodd" d="M10.25 19.7001H20.75C23.6495 19.7001 26 22.0506 26 24.9501C26 25.53 25.5299 26.0001 24.95 26.0001C24.4115 26.0001 23.9677 25.5948 23.9071 25.0726L23.8947 24.765C23.8024 23.1727 22.5274 21.8977 20.9351 21.8055L20.75 21.8001H10.25C8.5103 21.8001 7.1 23.2104 7.1 24.9501C7.1 25.53 6.6299 26.0001 6.05 26.0001C5.4701 26.0001 5 25.53 5 24.9501C5 22.1269 7.22842 19.8242 10.0223 19.705L10.25 19.7001H20.75H10.25ZM15.4995 5C18.9789 5 21.7995 7.82061 21.7995 11.3C21.7995 14.7794 18.9789 17.6 15.4995 17.6C12.0202 17.6 9.19954 14.7794 9.19954 11.3C9.19954 7.82061 12.0202 5 15.4995 5ZM15.5005 7.10006C13.1809 7.10006 11.3005 8.98046 11.3005 11.3001C11.3005 13.6197 13.1809 15.5001 15.5005 15.5001C17.8201 15.5001 19.7005 13.6197 19.7005 11.3001C19.7005 8.98046 17.8201 7.10006 15.5005 7.10006Z" fill="#A666FF"/>
<path d="M23.9071 25.0726L23.6573 25.0826L23.6576 25.0921L23.6587 25.1014L23.9071 25.0726ZM23.8947 24.765L24.1445 24.7549L24.1442 24.7506L23.8947 24.765ZM20.9351 21.8055L20.9496 21.5558L20.9423 21.5556L20.9351 21.8055ZM20.75 21.8001L20.7572 21.5501H20.75V21.8001ZM10.0223 19.705L10.0169 19.455L10.0116 19.4552L10.0223 19.705ZM10.25 19.7001L10.25 19.4501L10.2447 19.4502L10.25 19.7001ZM10.25 19.9501H20.75V19.4501H10.25V19.9501ZM20.75 19.9501C23.5114 19.9501 25.75 22.1887 25.75 24.9501H26.25C26.25 21.9125 23.7876 19.4501 20.75 19.4501V19.9501ZM25.75 24.9501C25.75 25.3919 25.3918 25.7501 24.95 25.7501V26.2501C25.668 26.2501 26.25 25.6681 26.25 24.9501H25.75ZM24.95 25.7501C24.5399 25.7501 24.2016 25.4413 24.1554 25.0437L23.6587 25.1014C23.7339 25.7482 24.2831 26.2501 24.95 26.2501V25.7501ZM24.1569 25.0625L24.1444 24.7549L23.6449 24.7751L23.6573 25.0826L24.1569 25.0625ZM24.1442 24.7506C24.0446 23.0316 22.6685 21.6555 20.9495 21.5559L20.9206 22.055C22.3862 22.14 23.5602 23.3139 23.6451 24.7795L24.1442 24.7506ZM20.9423 21.5556L20.7572 21.5502L20.7428 22.05L20.9279 22.0554L20.9423 21.5556ZM20.75 21.5501H10.25V22.0501H20.75V21.5501ZM10.25 21.5501C8.37223 21.5501 6.85 23.0723 6.85 24.9501H7.35C7.35 23.3485 8.64837 22.0501 10.25 22.0501V21.5501ZM6.85 24.9501C6.85 25.3919 6.49183 25.7501 6.05 25.7501V26.2501C6.76797 26.2501 7.35 25.6681 7.35 24.9501H6.85ZM6.05 25.7501C5.60817 25.7501 5.25 25.3919 5.25 24.9501H4.75C4.75 25.6681 5.33203 26.2501 6.05 26.2501V25.7501ZM5.25 24.9501C5.25 22.2614 7.37231 20.0683 10.0329 19.9547L10.0116 19.4552C7.08453 19.5801 4.75 21.9924 4.75 24.9501H5.25ZM10.0276 19.9549L10.2553 19.9501L10.2447 19.4502L10.0169 19.455L10.0276 19.9549ZM10.25 19.9501H20.75V19.4501H10.25V19.9501ZM20.75 19.4501H10.25V19.9501H20.75V19.4501ZM15.4995 5.25C18.8409 5.25 21.5495 7.95868 21.5495 11.3H22.0495C22.0495 7.68253 19.117 4.75 15.4995 4.75V5.25ZM21.5495 11.3C21.5495 14.6413 18.8409 17.35 15.4995 17.35V17.85C19.117 17.85 22.0495 14.9175 22.0495 11.3H21.5495ZM15.4995 17.35C12.1582 17.35 9.44954 14.6413 9.44954 11.3H8.94954C8.94954 14.9175 11.8821 17.85 15.4995 17.85V17.35ZM9.44954 11.3C9.44954 7.95868 12.1582 5.25 15.4995 5.25V4.75C11.8821 4.75 8.94954 7.68253 8.94954 11.3H9.44954ZM15.5005 6.85006C13.0428 6.85006 11.0505 8.84239 11.0505 11.3001H11.5505C11.5505 9.11853 13.3189 7.35006 15.5005 7.35006V6.85006ZM11.0505 11.3001C11.0505 13.7577 13.0428 15.7501 15.5005 15.7501V15.2501C13.3189 15.2501 11.5505 13.4816 11.5505 11.3001H11.0505ZM15.5005 15.7501C17.9581 15.7501 19.9505 13.7577 19.9505 11.3001H19.4505C19.4505 13.4816 17.682 15.2501 15.5005 15.2501V15.7501ZM19.9505 11.3001C19.9505 8.84239 17.9581 6.85006 15.5005 6.85006V7.35006C17.682 7.35006 19.4505 9.11853 19.4505 11.3001H19.9505Z" fill="#8833FF"/>
</g>
</g>
</svg>
